<mxfile host="app.diagrams.net" agent="Mozilla/5.0 (Windows NT 10.0; Win64; x64) AppleWebKit/537.36 (KHTML, like Gecko) Chrome/128.0.0.0 Safari/537.36" version="24.7.12">
  <diagram name="Halaman-1" id="3A9DL0NYtShfIJCwwY0Q">
    <mxGraphModel dx="1674" dy="772" grid="1" gridSize="10" guides="1" tooltips="1" connect="1" arrows="1" fold="1" page="1" pageScale="1" pageWidth="827" pageHeight="1169" math="0" shadow="0">
      <root>
        <mxCell id="0" />
        <mxCell id="1" parent="0" />
        <mxCell id="e9kZERjyRRixdFzRn6Yg-6" value="&lt;font style=&quot;font-size: 24px;&quot;&gt;ALUR BISNIS&lt;/font&gt;" style="text;html=1;align=center;verticalAlign=middle;whiteSpace=wrap;rounded=0;" parent="1" vertex="1">
          <mxGeometry x="340" width="170" height="70" as="geometry" />
        </mxCell>
        <mxCell id="e9kZERjyRRixdFzRn6Yg-7" value="MULAI" style="ellipse;whiteSpace=wrap;html=1;" parent="1" vertex="1">
          <mxGeometry x="335" y="80" width="145" height="70" as="geometry" />
        </mxCell>
        <mxCell id="e9kZERjyRRixdFzRn6Yg-13" value="SELESAI" style="ellipse;whiteSpace=wrap;html=1;" parent="1" vertex="1">
          <mxGeometry x="335" y="410" width="145" height="70" as="geometry" />
        </mxCell>
        <mxCell id="e9kZERjyRRixdFzRn6Yg-14" value="" style="shape=trapezoid;perimeter=trapezoidPerimeter;whiteSpace=wrap;html=1;fixedSize=1;rotation=-180;" parent="1" vertex="1">
          <mxGeometry x="347.5" y="190" width="120" height="60" as="geometry" />
        </mxCell>
        <mxCell id="e9kZERjyRRixdFzRn6Yg-15" value="PENGISIAN NOMINAL" style="text;html=1;align=center;verticalAlign=middle;whiteSpace=wrap;rounded=0;" parent="1" vertex="1">
          <mxGeometry x="377.5" y="205" width="60" height="30" as="geometry" />
        </mxCell>
        <mxCell id="e9kZERjyRRixdFzRn6Yg-16" value="" style="endArrow=classic;html=1;rounded=0;exitX=0.5;exitY=1;exitDx=0;exitDy=0;entryX=0.5;entryY=1;entryDx=0;entryDy=0;" parent="1" source="e9kZERjyRRixdFzRn6Yg-7" target="e9kZERjyRRixdFzRn6Yg-14" edge="1">
          <mxGeometry width="50" height="50" relative="1" as="geometry">
            <mxPoint x="580" y="160" as="sourcePoint" />
            <mxPoint x="460" y="170" as="targetPoint" />
            <Array as="points">
              <mxPoint x="408" y="170" />
            </Array>
          </mxGeometry>
        </mxCell>
        <mxCell id="e9kZERjyRRixdFzRn6Yg-21" value="" style="shape=trapezoid;perimeter=trapezoidPerimeter;whiteSpace=wrap;html=1;fixedSize=1;rotation=-180;" parent="1" vertex="1">
          <mxGeometry x="347.5" y="300" width="120" height="60" as="geometry" />
        </mxCell>
        <mxCell id="e9kZERjyRRixdFzRn6Yg-22" value="REKAP" style="text;html=1;align=center;verticalAlign=middle;whiteSpace=wrap;rounded=0;" parent="1" vertex="1">
          <mxGeometry x="377.5" y="315" width="60" height="30" as="geometry" />
        </mxCell>
        <mxCell id="e9kZERjyRRixdFzRn6Yg-23" value="" style="endArrow=classic;html=1;rounded=0;exitX=0.5;exitY=0;exitDx=0;exitDy=0;entryX=0.5;entryY=1;entryDx=0;entryDy=0;" parent="1" source="e9kZERjyRRixdFzRn6Yg-14" target="e9kZERjyRRixdFzRn6Yg-21" edge="1">
          <mxGeometry width="50" height="50" relative="1" as="geometry">
            <mxPoint x="600" y="290" as="sourcePoint" />
            <mxPoint x="400" y="310" as="targetPoint" />
          </mxGeometry>
        </mxCell>
        <mxCell id="e9kZERjyRRixdFzRn6Yg-25" value="" style="endArrow=classic;html=1;rounded=0;exitX=0.5;exitY=0;exitDx=0;exitDy=0;entryX=0.5;entryY=0;entryDx=0;entryDy=0;" parent="1" source="e9kZERjyRRixdFzRn6Yg-21" target="e9kZERjyRRixdFzRn6Yg-13" edge="1">
          <mxGeometry width="50" height="50" relative="1" as="geometry">
            <mxPoint x="600" y="290" as="sourcePoint" />
            <mxPoint x="650" y="240" as="targetPoint" />
          </mxGeometry>
        </mxCell>
      </root>
    </mxGraphModel>
  </diagram>
</mxfile>
